<svg xmlns="http://www.w3.org/2000/svg" width="604" height="1594" viewBox="0 0 604 1594" font-family="'DejaVu Sans Mono', 'Menlo', 'Consolas', 'Liberation Mono', 'Courier New', monospace" font-size="14px">
  <defs>
    <marker id="arrow-5c5c7c" viewBox="0 0 10 10" refX="9" refY="5" markerWidth="7" markerHeight="7" orient="auto-start-reverse">
      <path d="M 0 0 L 10 5 L 0 10 z" fill="#5c5c7c"/>
    </marker>
    <marker id="arrow-5c5c7c-back" viewBox="0 0 10 10" refX="9" refY="5" markerWidth="7" markerHeight="7" orient="auto-start-reverse">
      <path d="M 0 0 L 10 5 L 0 10 z" fill="#5c5c7c"/>
    </marker>
  </defs>
  <rect x="0" y="0" width="604" height="1594" fill="#111111"/>
  <g font-size="17px">
  <text x="119.5" y="57.45" fill="#d9d9d9" text-anchor="start">ens release</text>
  </g>
  <path d="M48 173 H304 a8 8 0 0 1 8 8 V212 a8 8 0 0 1 -8 8 H48 a8 8 0 0 1 -8 -8 V181 a8 8 0 0 1 8 -8 Z" fill="#191728" stroke="#4f5367"/>
  <text x="176" y="201.4" fill="#d9d9d9" text-anchor="middle">Check for uncommitted changes</text>
  <path d="M86 330 H266 a8 8 0 0 1 8 8 V388 a8 8 0 0 1 -8 8 H86 a8 8 0 0 1 -8 -8 V338 a8 8 0 0 1 8 -8 Z" fill="#191728" stroke="#4f5367"/>
  <text x="176" y="358.4" fill="#d9d9d9" text-anchor="middle">Compute next version</text>
  <text x="176" y="377.4" fill="#d9d9d9" text-anchor="middle">from existing tags</text>
  <path d="M126.7 501.3 a49.3 49.3 0 1 0 98.6 0 a49.3 49.3 0 1 0 -98.6 0 Z" fill="#191728" stroke="#4f5367"/>
  <text x="176" y="506.2" fill="#d9d9d9" text-anchor="middle">dry-run?</text>
  <path d="M343.3 468.3 H457.3 L473.3 484.3 V526.3 a8 8 0 0 1 -8 8 H343.3 a8 8 0 0 1 -8 -8 V476.3 a8 8 0 0 1 8 -8 Z" fill="#191728" stroke="#4f5367"/>
  <path d="M457.3 468.3 V484.3 H473.3" fill="none" stroke="#4f5367"/>
  <text x="404.3" y="496.7" fill="#d9d9d9" text-anchor="middle">Print preview</text>
  <text x="404.3" y="515.7" fill="#d9d9d9" text-anchor="middle">and exit</text>
  <path d="M126.7 681.31 a49.3 49.3 0 1 0 98.6 0 a49.3 49.3 0 1 0 -98.6 0 Z" fill="#191728" stroke="#4f5367"/>
  <text x="176" y="686.21" fill="#d9d9d9" text-anchor="middle">proceed?</text>
  <path d="M343.3 648.31 H465.3 L481.3 664.31 V706.31 a8 8 0 0 1 -8 8 H343.3 a8 8 0 0 1 -8 -8 V656.31 a8 8 0 0 1 8 -8 Z" fill="#191728" stroke="#4f5367"/>
  <path d="M465.3 648.31 V664.31 H481.3" fill="none" stroke="#4f5367"/>
  <text x="408.3" y="676.71" fill="#d9d9d9" text-anchor="middle">Exit — nothing</text>
  <text x="408.3" y="695.71" fill="#d9d9d9" text-anchor="middle">was changed</text>
  <path d="M98.5 812.01 H253.5 a8 8 0 0 1 8 8 V870.01 a8 8 0 0 1 -8 8 H98.5 a8 8 0 0 1 -8 -8 V820.01 a8 8 0 0 1 8 -8 Z" fill="#191728" stroke="#4f5367"/>
  <text x="176" y="840.41" fill="#d9d9d9" text-anchor="middle">Stamp &amp; commit</text>
  <text x="176" y="859.41" fill="#d9d9d9" text-anchor="middle">core lib versions</text>
  <path d="M94 934.01 H258 a8 8 0 0 1 8 8 V992.01 a8 8 0 0 1 -8 8 H94 a8 8 0 0 1 -8 -8 V942.01 a8 8 0 0 1 8 -8 Z" fill="#191728" stroke="#4f5367"/>
  <text x="176" y="962.41" fill="#d9d9d9" text-anchor="middle">Create release tag</text>
  <text x="176" y="981.41" fill="#d9d9d9" text-anchor="middle">locally</text>
  <path d="M128 1056.01 H224 a8 8 0 0 1 8 8 V1095.01 a8 8 0 0 1 -8 8 H128 a8 8 0 0 1 -8 -8 V1064.01 a8 8 0 0 1 8 -8 Z" fill="#191728" stroke="#4f5367"/>
  <text x="176" y="1084.41" fill="#d9d9d9" text-anchor="middle">Pack ships</text>
  <path d="M94 1159.01 H258 a8 8 0 0 1 8 8 V1198.01 a8 8 0 0 1 -8 8 H94 a8 8 0 0 1 -8 -8 V1167.01 a8 8 0 0 1 8 -8 Z" fill="#191728" stroke="#4f5367"/>
  <text x="176" y="1187.41" fill="#d9d9d9" text-anchor="middle">Push commits &amp; tag</text>
  <path d="M107 1262.01 H245 a8 8 0 0 1 8 8 V1320.01 a8 8 0 0 1 -8 8 H107 a8 8 0 0 1 -8 -8 V1270.01 a8 8 0 0 1 8 -8 Z" fill="#191728" stroke="#4f5367"/>
  <text x="176" y="1290.41" fill="#d9d9d9" text-anchor="middle">Publish ships &amp;</text>
  <text x="176" y="1309.41" fill="#d9d9d9" text-anchor="middle">core libs</text>
  <path d="M98.5 1384.01 H253.5 a8 8 0 0 1 8 8 V1442.01 a8 8 0 0 1 -8 8 H98.5 a8 8 0 0 1 -8 -8 V1392.01 a8 8 0 0 1 8 -8 Z" fill="#191728" stroke="#4f5367"/>
  <text x="176" y="1412.41" fill="#d9d9d9" text-anchor="middle">Run release-after</text>
  <text x="176" y="1431.41" fill="#d9d9d9" text-anchor="middle">hook (once)</text>
  <path d="M90 1506.01 H262 a8 8 0 0 1 8 8 V1545.01 a8 8 0 0 1 -8 8 H90 a8 8 0 0 1 -8 -8 V1514.01 a8 8 0 0 1 8 -8 Z" fill="#191728" stroke="#4f5367"/>
  <text x="176" y="1534.41" fill="#d9d9d9" text-anchor="middle">Clear release state</text>
  <path d="M371 1170.01 H548 L564 1186.01 V1206.01 a8 8 0 0 1 -8 8 H371 a8 8 0 0 1 -8 -8 V1178.01 a8 8 0 0 1 8 -8 Z" fill="#191728" stroke="#4f5367"/>
  <path d="M548 1170.01 V1186.01 H564" fill="none" stroke="#4f5367"/>
  <g font-size="12px">
  <text x="463.5" y="1196.21" fill="#8b8b8b" text-anchor="middle">ens release resume &lt;tag&gt;</text>
  </g>
  <line x1="176" y1="220" x2="176" y2="330" stroke="#5c5c7c" stroke-width="1.6" marker-end="url(#arrow-5c5c7c)"/>
  <line x1="176" y1="396" x2="176" y2="452" stroke="#5c5c7c" stroke-width="1.6" marker-end="url(#arrow-5c5c7c)"/>
  <path d="M 225.3 501.3 C 269.3 501.3, 291.3 501.3, 335.3 501.3" fill="none" stroke="#5c5c7c" stroke-width="1.6" marker-end="url(#arrow-5c5c7c)"/>
  <rect x="262.3" y="491.8" width="36" height="19" fill="#111111"/>
  <text x="280.3" y="506.2" fill="#d9d9d9" text-anchor="middle">yes</text>
  <line x1="176" y1="550.6" x2="176" y2="632" stroke="#5c5c7c" stroke-width="1.6" marker-end="url(#arrow-5c5c7c)"/>
  <rect x="162.5" y="581.8" width="27" height="19" fill="#111111"/>
  <text x="176" y="596.2" fill="#d9d9d9" text-anchor="middle">no</text>
  <path d="M 225.3 681.31 C 269.3 681.31, 291.3 681.31, 335.3 681.31" fill="none" stroke="#5c5c7c" stroke-width="1.6" marker-end="url(#arrow-5c5c7c)"/>
  <rect x="266.8" y="671.81" width="27" height="19" fill="#111111"/>
  <text x="280.3" y="686.21" fill="#d9d9d9" text-anchor="middle">no</text>
  <line x1="176" y1="730.61" x2="176" y2="812.01" stroke="#5c5c7c" stroke-width="1.6" marker-end="url(#arrow-5c5c7c)"/>
  <rect x="158" y="761.81" width="36" height="19" fill="#111111"/>
  <text x="176" y="776.21" fill="#d9d9d9" text-anchor="middle">yes</text>
  <line x1="176" y1="878.01" x2="176" y2="934.01" stroke="#5c5c7c" stroke-width="1.6" marker-end="url(#arrow-5c5c7c)"/>
  <line x1="176" y1="1000.01" x2="176" y2="1056.01" stroke="#5c5c7c" stroke-width="1.6" marker-end="url(#arrow-5c5c7c)"/>
  <line x1="176" y1="1103.01" x2="176" y2="1159.01" stroke="#5c5c7c" stroke-width="1.6" marker-end="url(#arrow-5c5c7c)"/>
  <line x1="176" y1="1206.01" x2="176" y2="1262.01" stroke="#5c5c7c" stroke-width="1.6" marker-end="url(#arrow-5c5c7c)"/>
  <line x1="176" y1="1328.01" x2="176" y2="1384.01" stroke="#5c5c7c" stroke-width="1.6" marker-end="url(#arrow-5c5c7c)"/>
  <line x1="176" y1="1450.01" x2="176" y2="1506.01" stroke="#5c5c7c" stroke-width="1.6" marker-end="url(#arrow-5c5c7c)"/>
  <path d="M 232 1079.51 C 299.03 1079.51, 295.97 1184.01, 363 1184.01" fill="none" stroke="#5c5c7c" stroke-width="1.6" stroke-dasharray="6.4 4.8" marker-end="url(#arrow-5c5c7c)"/>
  <rect x="256.5" y="1123.76" width="82" height="16" fill="#111111"/>
  <g font-size="12px">
  <text x="297.5" y="1135.96" fill="#8b8b8b" text-anchor="middle">on failure</text>
  </g>
  <path d="M 253 1295.01 C 311.14 1295.01, 304.86 1200.01, 363 1200.01" fill="none" stroke="#5c5c7c" stroke-width="1.6" stroke-dasharray="6.4 4.8" marker-end="url(#arrow-5c5c7c)"/>
  <rect x="267" y="1239.51" width="82" height="16" fill="#111111"/>
  <g font-size="12px">
  <text x="308" y="1251.71" fill="#8b8b8b" text-anchor="middle">on failure</text>
  </g>
</svg>
